<?xml version="1.0" encoding="UTF-8" standalone="no"?>
<!-- Generator: Gravit.io -->
<svg xmlns="http://www.w3.org/2000/svg" xmlns:xlink="http://www.w3.org/1999/xlink" style="isolation:isolate" viewBox="0 0 286.092 70.328" width="286.092" height="70.328"><defs><clipPath id="_clipPath_Ys4yOCuObvY4O9ywZIeYMyjaHpcLAMq7"><rect width="286.092" height="70.328"/></clipPath></defs><g clip-path="url(#_clipPath_Ys4yOCuObvY4O9ywZIeYMyjaHpcLAMq7)"><g id="Group"><g id="Group"><path d=" M 26.136 42.104 L 26.136 42.104 L 26.136 42.104 Q 26.136 39.728 25.344 37.676 L 25.344 37.676 L 25.344 37.676 Q 24.552 35.624 23.076 34.148 L 23.076 34.148 L 23.076 34.148 Q 21.6 32.672 19.584 31.808 L 19.584 31.808 L 19.584 31.808 Q 17.568 30.944 15.192 30.944 L 15.192 30.944 L 15.192 30.944 Q 12.816 30.944 10.764 31.808 L 10.764 31.808 L 10.764 31.808 Q 8.712 32.672 7.2 34.148 L 7.2 34.148 L 7.2 34.148 Q 5.688 35.624 4.824 37.64 L 4.824 37.64 L 4.824 37.64 Q 3.96 39.656 3.96 42.032 L 3.96 42.032 L 3.96 42.032 Q 3.96 44.408 4.824 46.424 L 4.824 46.424 L 4.824 46.424 Q 5.688 48.44 7.2 49.952 L 7.2 49.952 L 7.2 49.952 Q 8.712 51.464 10.764 52.328 L 10.764 52.328 L 10.764 52.328 Q 12.816 53.192 15.192 53.192 L 15.192 53.192 L 15.192 53.192 Q 17.568 53.192 19.584 52.328 L 19.584 52.328 L 19.584 52.328 Q 21.6 51.464 23.076 49.952 L 23.076 49.952 L 23.076 49.952 Q 24.552 48.44 25.344 46.424 L 25.344 46.424 L 25.344 46.424 Q 26.136 44.408 26.136 42.104 Z  M 30.384 42.104 L 30.384 42.104 L 30.384 42.104 Q 30.384 45.272 29.268 48.008 L 29.268 48.008 L 29.268 48.008 Q 28.152 50.744 26.136 52.76 L 26.136 52.76 L 26.136 52.76 Q 24.12 54.776 21.384 55.928 L 21.384 55.928 L 21.384 55.928 Q 18.648 57.08 15.408 57.08 L 15.408 57.08 L 15.408 57.08 Q 11.376 57.08 8.244 55.208 L 8.244 55.208 L 8.244 55.208 Q 5.112 53.336 3.888 50.6 L 3.888 50.6 L 3.888 50.6 Q 3.888 51.32 3.924 52.004 L 3.924 52.004 L 3.924 52.004 Q 3.96 52.688 3.96 53.48 L 3.96 53.48 L 3.96 70.328 L 0 70.328 L 0 27.704 L 3.816 27.704 L 3.816 27.704 Q 3.816 27.92 3.852 28.64 L 3.852 28.64 L 3.852 28.64 Q 3.888 29.36 3.888 30.26 L 3.888 30.26 L 3.888 30.26 Q 3.888 31.16 3.924 32.096 L 3.924 32.096 L 3.924 32.096 Q 3.96 33.032 3.96 33.752 L 3.96 33.752 L 3.96 33.752 Q 5.328 31.088 8.352 29.072 L 8.352 29.072 L 8.352 29.072 Q 11.376 27.056 15.552 27.056 L 15.552 27.056 L 15.552 27.056 Q 18.792 27.056 21.492 28.172 L 21.492 28.172 L 21.492 28.172 Q 24.192 29.288 26.172 31.268 L 26.172 31.268 L 26.172 31.268 Q 28.152 33.248 29.268 36.02 L 29.268 36.02 L 29.268 36.02 Q 30.384 38.792 30.384 42.104 Z  M 36.072 42.104 L 36.072 42.104 L 36.072 42.104 Q 36.072 39.008 37.26 36.236 L 37.26 36.236 L 37.26 36.236 Q 38.448 33.464 40.5 31.412 L 40.5 31.412 L 40.5 31.412 Q 42.552 29.36 45.324 28.172 L 45.324 28.172 L 45.324 28.172 Q 48.096 26.984 51.264 26.984 L 51.264 26.984 L 51.264 26.984 Q 54.432 26.984 57.204 28.172 L 57.204 28.172 L 57.204 28.172 Q 59.976 29.36 61.992 31.412 L 61.992 31.412 L 61.992 31.412 Q 64.008 33.464 65.16 36.236 L 65.16 36.236 L 65.16 36.236 Q 66.312 39.008 66.312 42.104 L 66.312 42.104 L 66.312 42.104 Q 66.312 45.2 65.16 47.936 L 65.16 47.936 L 65.16 47.936 Q 64.008 50.672 61.956 52.688 L 61.956 52.688 L 61.956 52.688 Q 59.904 54.704 57.168 55.892 L 57.168 55.892 L 57.168 55.892 Q 54.432 57.08 51.192 57.08 L 51.192 57.08 L 51.192 57.08 Q 48.024 57.08 45.288 55.964 L 45.288 55.964 L 45.288 55.964 Q 42.552 54.848 40.5 52.832 L 40.5 52.832 L 40.5 52.832 Q 38.448 50.816 37.26 48.08 L 37.26 48.08 L 37.26 48.08 Q 36.072 45.344 36.072 42.104 Z  M 40.032 42.104 L 40.032 42.104 L 40.032 42.104 Q 40.032 44.408 40.896 46.424 L 40.896 46.424 L 40.896 46.424 Q 41.76 48.44 43.272 49.952 L 43.272 49.952 L 43.272 49.952 Q 44.784 51.464 46.8 52.328 L 46.8 52.328 L 46.8 52.328 Q 48.816 53.192 51.12 53.192 L 51.12 53.192 L 51.12 53.192 Q 53.424 53.192 55.476 52.328 L 55.476 52.328 L 55.476 52.328 Q 57.528 51.464 59.04 49.952 L 59.04 49.952 L 59.04 49.952 Q 60.552 48.44 61.416 46.424 L 61.416 46.424 L 61.416 46.424 Q 62.28 44.408 62.28 42.104 L 62.28 42.104 L 62.28 42.104 Q 62.28 39.8 61.416 37.748 L 61.416 37.748 L 61.416 37.748 Q 60.552 35.696 59.04 34.184 L 59.04 34.184 L 59.04 34.184 Q 57.528 32.672 55.476 31.808 L 55.476 31.808 L 55.476 31.808 Q 53.424 30.944 51.12 30.944 L 51.12 30.944 L 51.12 30.944 Q 48.816 30.944 46.8 31.808 L 46.8 31.808 L 46.8 31.808 Q 44.784 32.672 43.272 34.184 L 43.272 34.184 L 43.272 34.184 Q 41.76 35.696 40.896 37.748 L 40.896 37.748 L 40.896 37.748 Q 40.032 39.8 40.032 42.104 Z  M 100.224 42.104 L 100.224 42.104 L 100.224 42.104 Q 100.224 39.728 99.432 37.676 L 99.432 37.676 L 99.432 37.676 Q 98.64 35.624 97.164 34.148 L 97.164 34.148 L 97.164 34.148 Q 95.688 32.672 93.672 31.808 L 93.672 31.808 L 93.672 31.808 Q 91.656 30.944 89.28 30.944 L 89.28 30.944 L 89.28 30.944 Q 86.904 30.944 84.852 31.808 L 84.852 31.808 L 84.852 31.808 Q 82.8 32.672 81.288 34.148 L 81.288 34.148 L 81.288 34.148 Q 79.776 35.624 78.912 37.64 L 78.912 37.64 L 78.912 37.64 Q 78.048 39.656 78.048 42.032 L 78.048 42.032 L 78.048 42.032 Q 78.048 44.408 78.912 46.424 L 78.912 46.424 L 78.912 46.424 Q 79.776 48.44 81.288 49.952 L 81.288 49.952 L 81.288 49.952 Q 82.8 51.464 84.852 52.328 L 84.852 52.328 L 84.852 52.328 Q 86.904 53.192 89.28 53.192 L 89.28 53.192 L 89.28 53.192 Q 91.656 53.192 93.672 52.328 L 93.672 52.328 L 93.672 52.328 Q 95.688 51.464 97.164 49.952 L 97.164 49.952 L 97.164 49.952 Q 98.64 48.44 99.432 46.424 L 99.432 46.424 L 99.432 46.424 Q 100.224 44.408 100.224 42.104 Z  M 104.472 42.104 L 104.472 42.104 L 104.472 42.104 Q 104.472 45.272 103.356 48.008 L 103.356 48.008 L 103.356 48.008 Q 102.24 50.744 100.224 52.76 L 100.224 52.76 L 100.224 52.76 Q 98.208 54.776 95.472 55.928 L 95.472 55.928 L 95.472 55.928 Q 92.736 57.08 89.496 57.08 L 89.496 57.08 L 89.496 57.08 Q 85.464 57.08 82.332 55.208 L 82.332 55.208 L 82.332 55.208 Q 79.2 53.336 77.976 50.6 L 77.976 50.6 L 77.976 50.6 Q 77.976 51.32 78.012 52.004 L 78.012 52.004 L 78.012 52.004 Q 78.048 52.688 78.048 53.48 L 78.048 53.48 L 78.048 70.328 L 74.088 70.328 L 74.088 27.704 L 77.904 27.704 L 77.904 27.704 Q 77.904 27.92 77.94 28.64 L 77.94 28.64 L 77.94 28.64 Q 77.976 29.36 77.976 30.26 L 77.976 30.26 L 77.976 30.26 Q 77.976 31.16 78.012 32.096 L 78.012 32.096 L 78.012 32.096 Q 78.048 33.032 78.048 33.752 L 78.048 33.752 L 78.048 33.752 Q 79.416 31.088 82.44 29.072 L 82.44 29.072 L 82.44 29.072 Q 85.464 27.056 89.64 27.056 L 89.64 27.056 L 89.64 27.056 Q 92.88 27.056 95.58 28.172 L 95.58 28.172 L 95.58 28.172 Q 98.28 29.288 100.26 31.268 L 100.26 31.268 L 100.26 31.268 Q 102.24 33.248 103.356 36.02 L 103.356 36.02 L 103.356 36.02 Q 104.472 38.792 104.472 42.104 Z  M 110.16 42.104 L 110.16 42.104 L 110.16 42.104 Q 110.16 39.008 111.348 36.236 L 111.348 36.236 L 111.348 36.236 Q 112.536 33.464 114.588 31.412 L 114.588 31.412 L 114.588 31.412 Q 116.64 29.36 119.412 28.172 L 119.412 28.172 L 119.412 28.172 Q 122.184 26.984 125.352 26.984 L 125.352 26.984 L 125.352 26.984 Q 128.52 26.984 131.292 28.172 L 131.292 28.172 L 131.292 28.172 Q 134.064 29.36 136.08 31.412 L 136.08 31.412 L 136.08 31.412 Q 138.096 33.464 139.248 36.236 L 139.248 36.236 L 139.248 36.236 Q 140.4 39.008 140.4 42.104 L 140.4 42.104 L 140.4 42.104 Q 140.4 45.2 139.248 47.936 L 139.248 47.936 L 139.248 47.936 Q 138.096 50.672 136.044 52.688 L 136.044 52.688 L 136.044 52.688 Q 133.992 54.704 131.256 55.892 L 131.256 55.892 L 131.256 55.892 Q 128.52 57.08 125.28 57.08 L 125.28 57.08 L 125.28 57.08 Q 122.112 57.08 119.376 55.964 L 119.376 55.964 L 119.376 55.964 Q 116.64 54.848 114.588 52.832 L 114.588 52.832 L 114.588 52.832 Q 112.536 50.816 111.348 48.08 L 111.348 48.08 L 111.348 48.08 Q 110.16 45.344 110.16 42.104 Z  M 114.12 42.104 L 114.12 42.104 L 114.12 42.104 Q 114.12 44.408 114.984 46.424 L 114.984 46.424 L 114.984 46.424 Q 115.848 48.44 117.36 49.952 L 117.36 49.952 L 117.36 49.952 Q 118.872 51.464 120.888 52.328 L 120.888 52.328 L 120.888 52.328 Q 122.904 53.192 125.208 53.192 L 125.208 53.192 L 125.208 53.192 Q 127.512 53.192 129.564 52.328 L 129.564 52.328 L 129.564 52.328 Q 131.616 51.464 133.128 49.952 L 133.128 49.952 L 133.128 49.952 Q 134.64 48.44 135.504 46.424 L 135.504 46.424 L 135.504 46.424 Q 136.368 44.408 136.368 42.104 L 136.368 42.104 L 136.368 42.104 Q 136.368 39.8 135.504 37.748 L 135.504 37.748 L 135.504 37.748 Q 134.64 35.696 133.128 34.184 L 133.128 34.184 L 133.128 34.184 Q 131.616 32.672 129.564 31.808 L 129.564 31.808 L 129.564 31.808 Q 127.512 30.944 125.208 30.944 L 125.208 30.944 L 125.208 30.944 Q 122.904 30.944 120.888 31.808 L 120.888 31.808 L 120.888 31.808 Q 118.872 32.672 117.36 34.184 L 117.36 34.184 L 117.36 34.184 Q 115.848 35.696 114.984 37.748 L 114.984 37.748 L 114.984 37.748 Q 114.12 39.8 114.12 42.104 Z  M 150.336 27.992 L 150.336 15.104 L 154.296 15.104 L 154.296 27.992 L 162.864 27.992 L 162.864 31.592 L 154.296 31.592 L 154.296 56.504 L 150.336 56.504 L 150.336 31.592 L 144.576 31.592 L 144.576 27.992 L 150.336 27.992 L 150.336 27.992 Z  M 173.088 22.232 L 168.984 22.232 L 168.984 4.232 L 173.376 4.232 L 173.088 22.232 L 173.088 22.232 Z " fill-rule="evenodd" fill="rgb(68,63,47)"/><path d=" M 214.236 13.16 C 214.236 12.872 214.236 12.656 214.236 12.368 L 214.236 12.368 C 214.236 12.368 214.236 12.296 214.236 12.296 C 214.236 12.224 214.236 12.152 214.236 12.152 C 214.236 12.08 214.236 11.936 214.236 11.864 C 214.236 11.864 214.236 11.864 214.236 11.864 C 214.092 5.312 211.068 3.224 208.404 2.576 C 208.332 2.576 208.332 2.576 208.26 2.576 C 207.972 2.504 207.612 2.432 207.324 2.432 C 202.428 1.784 188.82 -0.448 178.596 64.424 C 181.044 64.352 185.796 62.12 186.66 59.312 C 187.812 56.864 188.604 46.352 190.116 35.408 C 190.26 35.408 190.404 35.48 190.548 35.48 C 191.196 35.552 191.844 35.624 192.564 35.696 C 192.924 35.696 193.284 35.768 193.644 35.768 C 194.004 35.84 194.436 35.84 194.796 35.912 C 195.588 35.912 196.38 35.984 197.172 36.056 C 197.964 36.128 198.828 36.2 199.62 36.272 C 200.34 36.272 200.988 36.344 201.708 36.416 C 201.06 48.944 201.924 59.888 208.116 59.456 C 210.564 59.24 215.244 57.008 216.036 54.344 C 212.94 52.544 213.732 27.2 214.236 13.16 Z  M 199.908 33.032 C 199.116 32.96 198.324 32.888 197.46 32.744 C 196.668 32.672 195.876 32.6 195.156 32.528 C 194.724 32.456 194.364 32.456 194.004 32.384 C 193.644 32.312 193.284 32.312 192.924 32.24 C 192.276 32.168 191.556 32.096 190.98 32.024 C 190.836 31.952 190.692 31.952 190.62 31.952 C 192.42 19.856 195.372 8.408 200.844 8.192 C 204.444 8.048 202.788 21.08 202.356 26.408 C 202.212 28.64 201.996 30.944 201.852 33.176 C 201.204 33.176 200.556 33.104 199.908 33.032 Z " fill-rule="evenodd" fill="rgb(234,41,96)"/><path d=" M 253.26 35.552 C 253.26 35.552 249.948 52.688 244.26 58.736 C 238.572 64.856 240.588 52.832 242.1 41.024 C 243.252 31.52 235.548 31.016 232.452 31.232 C 232.38 31.232 229.212 31.304 229.356 29.36 C 230.076 20.216 219.636 24.68 219.636 24.68 C 221.148 29.648 215.172 35.696 231.156 36.056 C 230.076 46.424 224.892 66.512 234.468 66.944 C 248.436 67.592 254.988 38.36 255.564 36.632 C 256.14 34.904 253.26 35.552 253.26 35.552 Z " fill="rgb(255,176,4)"/><path d=" M 284.508 33.32 C 284.508 33.32 277.812 47.432 273.06 51.248 C 267.444 55.856 268.236 44.264 268.164 31.664 L 268.164 31.664 C 268.236 27.416 268.38 23.024 268.596 19.136 C 269.388 19.064 270.252 18.92 270.972 18.848 C 271.764 18.776 272.556 18.632 273.276 18.56 C 273.924 18.488 274.572 18.344 275.148 18.272 C 275.724 18.2 276.228 18.128 276.66 18.056 C 277.452 17.912 277.884 17.768 277.884 17.768 L 277.74 15.536 C 277.74 15.536 277.236 15.536 276.444 15.536 C 276.012 15.536 275.508 15.536 274.932 15.536 C 274.356 15.536 273.708 15.608 272.988 15.608 C 272.268 15.608 271.548 15.608 270.756 15.68 C 270.108 15.68 269.388 15.752 268.74 15.752 C 268.884 13.376 269.028 11.144 269.1 9.416 C 270.036 -2.464 257.796 0.272 257.796 0.272 C 258.3 2.288 257.94 8.768 257.436 16.688 C 257.364 16.688 257.292 16.688 257.148 16.76 C 256.284 16.832 255.42 16.904 254.628 17.048 C 253.836 17.12 253.044 17.264 252.396 17.336 C 250.956 17.552 249.804 17.696 249.012 17.84 C 248.58 17.912 248.292 17.984 248.076 17.984 C 247.86 18.056 247.716 18.056 247.716 18.056 L 247.932 20.288 C 247.932 20.288 248.004 20.288 248.22 20.288 C 248.436 20.288 248.796 20.288 249.228 20.288 C 250.02 20.288 251.172 20.288 252.612 20.288 C 253.332 20.216 254.124 20.216 254.916 20.216 C 255.636 20.144 256.428 20.144 257.292 20.072 C 256.284 37.28 255.492 59.096 262.62 59.384 C 276.732 60.464 286.092 34.472 286.092 34.472 L 284.508 33.32 L 284.508 33.32 Z " fill="rgb(240,108,8)"/></g></g></g></svg>